#!OML:ASF H:\ManfredObstacles\Project 1\Capture day 1\Session 1\Male.ASF
:FULLY-SPECIFIED
:DEGREES
433
root -14.5124 16.5207 4.72653 28.1781 -79.9845 -381.384
lowerback -12.2484 -2.89889 -0.526823
upperback 1.38828 -3.93493 1.62873
thorax 8.51787 -1.97886 1.26415
lowerneck -2.5589 -3.48428 -5.0275
upperneck 3.03714 -4.97942 10.8667
head 1.90294 -2.39917 4.38791
rclavicle -1.49337e-014 4.37326e-015
rhumerus -44.4304 -34.26 -63.0901
rradius 22.0207
rwrist 41.0758
rhand 1.53961 -5.34899
rfingers 7.12502
rthumb 27.0642 -33.4294
lclavicle -1.49337e-014 4.37326e-015
lhumerus -28.691 18.2176 82.2881
lradius 16.9396
lwrist -33.0446
lhand -7.23386 10.2994
lfingers 7.12502
lthumb 18.6459 39.4258
rfemur -28.1938 -3.3228 21.3378
rtibia 27.754
rfoot -6.82926 6.6515
rtoes 6.80771
lfemur 1.41977 -5.74933 -17.4619
ltibia 9.71731
lfoot -5.1212 -12.3999
ltoes 6.50453
434
root -14.6174 16.5301 4.70743 26.3789 -79.9831 -379.388
lowerback -12.3964 -3.00433 -0.88068
upperback 1.34106 -4.01646 1.57895
thorax 8.5759 -2.03277 1.38735
lowerneck -2.52508 -3.50071 -4.94789
upperneck 2.48689 -4.97353 11.1026
head 1.72063 -2.40552 4.45693
rclavicle -2.25745e-014 -5.56597e-015
rhumerus -43.7423 -33.5817 -63.8179
rradius 22.3873
rwrist 40.1994
rhand 1.45241 -5.4788
rfingers 7.12502
rthumb 26.9808 -33.5722
lclavicle -2.25745e-014 -5.56597e-015
lhumerus -29.2274 20.0599 81.2921
lradius 15.956
lwrist -35.3642
lhand -7.16283 10.0161
lfingers 7.12502
lthumb 18.7142 39.1359
rfemur -28.2059 -4.2531 21.3643
rtibia 28.0768
rfoot -7.26817 7.36229
rtoes 4.89435
lfemur 2.10312 -5.90252 -17.7548
ltibia 8.76521
lfoot -4.88242 -12.0953
ltoes 4.87787
435
root -14.7144 16.5395 4.68799 25.5541 -79.9868 -378.363
lowerback -12.5245 -3.06663 -1.02912
upperback 1.3012 -4.07013 1.51514
thorax 8.614 -2.06324 1.38654
lowerneck -2.43742 -3.51998 -4.92041
upperneck 1.88308 -4.96794 11.4013
head 1.51556 -2.4164 4.56103
rclavicle -1.77043e-014 -1.15295e-014
rhumerus -43.0609 -32.9077 -64.6488
rradius 22.7732
rwrist 39.2698
rhand 1.27834 -5.58007
rfingers 7.12502
rthumb 26.8142 -33.6991
lclavicle -1.77043e-014 -1.15295e-014
lhumerus -29.7551 21.7362 80.1929
lradius 15.0447
lwrist -37.8261
lhand -7.14527 9.77711
lfingers 7.12502
lthumb 18.7311 38.8953
rfemur -28.2515 -4.87253 21.4594
rtibia 28.4251
rfoot -7.65766 7.88376
rtoes 4.4473
lfemur 2.96873 -5.97386 -17.8639
ltibia 7.39544
lfoot -4.29872 -11.8528
ltoes 3.95283
436
root -14.8081 16.5423 4.67034 26.9352 -80.0774 -379.759
lowerback -12.4767 -3.04103 -1.03873
upperback 1.30239 -4.05685 1.75015
thorax 8.60665 -2.06494 1.64704
lowerneck -2.14947 -3.48799 -5.12575
upperneck 1.11474 -4.86238 11.5572
head 1.21339 -2.38828 4.66787
rclavicle 9.85227e-015 9.93923e-016
rhumerus -42.3475 -32.1313 -65.1042
rradius 23.1812
rwrist 38.3821
rhand 1.16144 -5.60144
rfingers 7.12502
rthumb 26.7024 -33.7376
lclavicle 9.85227e-015 9.93923e-016
lhumerus -30.4445 24.463 78.9696
lradius 14.1763
lwrist -41.154
lhand -7.19826 9.62017
lfingers 7.12502
lthumb 18.6801 38.7432
rfemur -28.1254 -5.376 21.9313
rtibia 28.7655
rfoot -7.95972 8.60463
rtoes 4.96475
lfemur 4.31019 -5.79156 -17.5839
ltibia 5.56827
lfoot -3.51704 -11.644
ltoes 4.3793
437
root -14.8901 16.5411 4.65274 28.2928 -80.2964 -381.119
lowerback -12.3266 -3.12646 -1.64316
upperback 1.27974 -4.14236 2.41028
thorax 8.59897 -2.15729 2.68096
lowerneck -1.9444 -3.36206 -5.49347
upperneck 0.417535 -4.60724 11.2289
head 0.924339 -2.27894 4.63463
rclavicle 5.58305e-015 -2.63638e-014
rhumerus -41.1478 -30.7211 -65.3211
rradius 23.4485
rwrist 37.3461
rhand 1.11807 -5.84433
rfingers 7.12502
rthumb 26.6609 -33.9868
lclavicle 5.58305e-015 -2.63638e-014
lhumerus -31.444 28.7023 77.6507
lradius 13.3468
lwrist -45.4818
lhand -7.42823 9.39963
lfingers 7.12502
lthumb 18.4589 38.5438
rfemur -28.0381 -5.73157 22.3251
rtibia 29.0329
rfoot -8.1481 9.37941
rtoes 5.54766
lfemur 5.97161 -5.50164 -17.3273
ltibia 3.01562
lfoot -2.49181 -11.29
ltoes 5.09359
